<?xml version="1.0" encoding="utf-8"?>
<!-- Generator: Adobe Illustrator 25.4.1, SVG Export Plug-In . SVG Version: 6.00 Build 0)  -->
<svg version="1.1" id="Ebene_1" xmlns="http://www.w3.org/2000/svg" xmlns:xlink="http://www.w3.org/1999/xlink" x="0px" y="0px"
	 viewBox="0 0 12.2 14.5" style="enable-background:new 0 0 12.2 14.5;" xml:space="preserve">
<g>
	<path d="M12.2,8.8v4.4c0,0.7-0.6,1.3-1.3,1.3H1.3c-0.7,0-1.3-0.6-1.3-1.3V8.8c0-0.7,0.6-1.3,1.3-1.3H2V4.7c0-2.3,1.8-4.2,4.1-4.2
		s4.2,1.9,4.2,4.2v0.4c0,0.4-0.3,0.7-0.7,0.7H8.8c-0.4,0-0.7-0.3-0.7-0.7V4.7c0-1.1-0.9-2-2-2c-1.1,0-1.9,0.9-1.9,2v2.8h6.8
		C11.7,7.5,12.2,8.1,12.2,8.8z"/>
</g>
</svg>
