<?xml version="1.0" encoding="utf-8"?>
<!-- Generator: Adobe Illustrator 25.4.1, SVG Export Plug-In . SVG Version: 6.00 Build 0)  -->
<svg version="1.1" id="Ebene_1" xmlns="http://www.w3.org/2000/svg" xmlns:xlink="http://www.w3.org/1999/xlink" x="0px" y="0px"
	 viewBox="0 0 12.2 14" style="enable-background:new 0 0 12.2 14;" xml:space="preserve">
<g>
	<path d="M12.2,7.4v5.2c0,0.7-0.6,1.3-1.3,1.3H1.3C0.6,14,0,13.4,0,12.7V7.4c0-0.7,0.6-1.3,1.3-1.3H2v-2C2,1.9,3.8,0,6.1,0
		s4.2,1.9,4.2,4.2v2h0.7C11.7,6.1,12.2,6.7,12.2,7.4z M8.1,4.2c0-1.1-0.9-2-2-2s-2,0.9-2,2v2h3.9V4.2z"/>
</g>
</svg>
