<?xml version="1.0" encoding="utf-8"?>
<!-- Generator: Adobe Illustrator 25.4.1, SVG Export Plug-In . SVG Version: 6.00 Build 0)  -->
<svg version="1.1" id="Ebene_1" xmlns="http://www.w3.org/2000/svg" xmlns:xlink="http://www.w3.org/1999/xlink" x="0px" y="0px"
	 viewBox="0 0 229.3 57.2" style="enable-background:new 0 0 229.3 57.2;" xml:space="preserve">
<style type="text/css">
	.st0{fill:url(#SVGID_1_);}
	.st1{fill:#FFFFFF;}
</style>
<linearGradient id="SVGID_1_" gradientUnits="userSpaceOnUse" x1="0" y1="28.5931" x2="229.3089" y2="28.5931">
	<stop  offset="0" style="stop-color:#0080C9"/>
	<stop  offset="1.752150e-02" style="stop-color:#0083C9"/>
	<stop  offset="0.1957" style="stop-color:#0097C7"/>
	<stop  offset="0.38" style="stop-color:#00A7C4"/>
	<stop  offset="0.5706" style="stop-color:#3EB4BF"/>
	<stop  offset="0.7716" style="stop-color:#52BBBC"/>
	<stop  offset="1" style="stop-color:#58BEBB"/>
</linearGradient>
<path class="st0" d="M35.7,54.2H0V18.5C0,8.3,8.3,0,18.5,0h35.7v35.7C54.2,45.9,45.9,54.2,35.7,54.2z M91.5,14.4
	c0.5,0,0.8,0.3,0.8,0.8v3.6c0,0.5-0.3,0.8-0.8,0.8H71c-0.9,0-1.6,0.2-1.9,0.5c-0.4,0.3-0.5,0.9-0.5,1.5v0.7c0,0.6,0.2,1.1,0.5,1.4
	c0.4,0.3,1,0.5,1.9,0.5h15.3c2.5,0,4.4,0.5,5.4,1.6c1.1,1.1,1.6,2.6,1.6,4.5v2.5c0,1-0.1,1.9-0.4,2.7c-0.2,0.8-0.6,1.5-1.2,2
	c-0.6,0.5-1.3,1-2.2,1.2c-0.9,0.3-2,0.4-3.4,0.4H63c-0.5,0-0.8-0.3-0.8-0.8v-3.6c0-0.5,0.3-0.8,0.8-0.8h21.5c0.9,0,1.6-0.2,2-0.5
	c0.4-0.3,0.6-0.9,0.6-1.7v-1.2c0-0.6-0.2-1.1-0.6-1.4c-0.4-0.3-1-0.5-2-0.5H69.3c-2.5,0-4.4-0.5-5.4-1.6c-1.1-1-1.6-2.6-1.6-4.6v-2
	c0-0.9,0.1-1.8,0.4-2.6c0.2-0.8,0.6-1.4,1.2-2c0.6-0.5,1.3-1,2.2-1.2c0.9-0.3,2-0.4,3.4-0.4H91.5z M103.8,5.3c0.7,0,1,0.3,1,1v8.1
	h17c2,0,3.7,0.2,5.1,0.5c1.4,0.3,2.5,0.9,3.3,1.6c0.8,0.7,1.4,1.7,1.8,2.9s0.5,2.6,0.5,4.2v14.7c0,0.7-0.3,1-1,1h-4.4
	c-0.7,0-1-0.3-1-1V25.1c0-0.9-0.1-1.7-0.2-2.4c-0.1-0.6-0.4-1.2-0.7-1.5c-0.3-0.4-0.8-0.6-1.4-0.8c-0.6-0.2-1.4-0.2-2.4-0.2h-16.6
	v18.1c0,0.7-0.3,1-1,1h-4.4c-0.7,0-1-0.3-1-1v-32c0-0.7,0.3-1,1-1H103.8z M143.6,14.4c0.7,0,1,0.3,1,1v22.9c0,0.7-0.3,1-1,1h-4.4
	c-0.7,0-1-0.3-1-1V15.4c0-0.7,0.3-1,1-1H143.6z M174,14.4c2,0,3.7,0.2,5.1,0.5c1.4,0.3,2.5,0.9,3.3,1.6c0.8,0.7,1.4,1.7,1.8,2.9
	c0.4,1.2,0.5,2.6,0.5,4.2v14.7c0,0.7-0.3,1-1,1h-4.4c-0.7,0-1-0.3-1-1V25.1c0-0.9-0.1-1.7-0.2-2.4c-0.1-0.6-0.4-1.2-0.7-1.5
	c-0.3-0.4-0.8-0.6-1.4-0.8c-0.6-0.2-1.4-0.2-2.4-0.2h-12.1c-1,0-1.8,0.1-2.4,0.2c-0.6,0.2-1.1,0.4-1.5,0.8c-0.4,0.4-0.6,0.9-0.8,1.5
	c-0.2,0.6-0.2,1.4-0.2,2.4v13.1c0,0.7-0.3,1-1,1h-4.4c-0.7,0-1-0.3-1-1V23.6c0-1.6,0.2-3,0.5-4.2c0.4-1.2,1-2.1,1.8-2.9
	c0.8-0.7,1.9-1.3,3.3-1.6c1.4-0.3,3.1-0.5,5.1-0.5H174z M213.5,14.4c1.5,0,2.8,0.1,3.8,0.4c1,0.3,1.8,0.7,2.4,1.3
	c0.6,0.6,1,1.4,1.2,2.3c0.2,1,0.4,2.1,0.4,3.5v4.3c0,1-0.2,1.6-0.6,2c-0.4,0.4-1.1,0.6-1.9,0.6h-22.9v1.1c0,1.4,0.3,2.4,1,3.1
	c0.7,0.6,2,1,4,1h18.9c0.5,0,0.8,0.3,0.8,0.8v3.8c0,0.5-0.3,0.8-0.8,0.8h-19.5c-2.1,0-3.8-0.2-5.1-0.5c-1.4-0.3-2.5-0.9-3.3-1.6
	c-0.8-0.7-1.4-1.7-1.8-2.9c-0.4-1.2-0.5-2.6-0.5-4.2v-6.5c0-1.6,0.2-3,0.5-4.2s1-2.1,1.8-2.9c0.8-0.7,1.9-1.3,3.3-1.6
	c1.4-0.3,3.1-0.5,5.1-0.5H213.5z M195.9,24.7h18.4c0.5,0,0.8-0.3,0.8-0.8V22c0-0.9-0.2-1.6-0.6-2c-0.4-0.4-1.1-0.6-2.2-0.6h-11.4
	c-2,0-3.3,0.3-4,0.9c-0.7,0.6-1,1.7-1,3.1V24.7z M70,52.6l0,0.2l0.1,0l0-0.2l1.5-5.4h1.2L70.7,54h-1.2L67.7,49l-0.1-0.3h-0.1
	L67.5,49L65.7,54h-1.2l-2.2-6.8h1.2l1.5,5.4l0,0.2h0.1l0.1-0.2l1.9-5.4h1L70,52.6z M74.9,44.4c0.4,0,0.7,0.3,0.7,0.7
	c0,0.4-0.3,0.7-0.7,0.7c-0.4,0-0.7-0.3-0.7-0.7C74.3,44.7,74.6,44.4,74.9,44.4z M74.4,47.2h1.1V54h-1.1V47.2z M77,47.2h1.1V45h1.1
	v2.2h2v1h-2v3.6c0,1,0.5,1.4,1.2,1.4c0.4,0,0.8,0,1.1-0.2l0.3,0.8c-0.4,0.2-0.9,0.3-1.4,0.3c-1.3,0-2.3-0.8-2.3-2.3v-3.6H77V47.2z
	 M83.1,44.1h1.1v4l0.1,0c0.5-0.6,1.4-1.1,2.5-1.1c1.4,0,2.5,1,2.5,2.9V54h-1.1v-4.1c0-1.3-0.7-1.9-1.7-1.9c-0.9,0-1.8,0.4-2.3,1.3
	V54h-1.1V44.1z M95,44.5h2.7c2.2,0,3.3,1.2,3.3,2.6c0,0.9-0.5,1.6-1.4,2l0,0.1c1.2,0.3,1.9,1.2,1.9,2.3c0,1.4-1.1,2.6-3.3,2.6H95
	V44.5z M96,45.4v3.3h1.7c1.5,0,2.1-0.7,2.1-1.6c0-0.9-0.7-1.6-2.3-1.6H96z M96,49.7v3.4h2.1c1.6,0,2.3-0.7,2.3-1.6
	c0-1-0.6-1.8-2.1-1.8H96z M106.2,47.1c2,0,3.6,1.6,3.6,3.6c0,2-1.6,3.6-3.6,3.6c-2,0-3.6-1.6-3.6-3.6
	C102.7,48.6,104.3,47.1,106.2,47.1z M106.2,53.2c1.4,0,2.5-1.2,2.5-2.6c0-1.4-1.1-2.6-2.5-2.6c-1.4,0-2.5,1.2-2.5,2.6
	C103.8,52.1,104.9,53.2,106.2,53.2z M114.4,47.1c2,0,3.6,1.6,3.6,3.6c0,2-1.6,3.6-3.6,3.6c-2,0-3.6-1.6-3.6-3.6
	C110.9,48.6,112.5,47.1,114.4,47.1z M114.4,53.2c1.4,0,2.5-1.2,2.5-2.6c0-1.4-1.1-2.6-2.5-2.6c-1.4,0-2.5,1.2-2.5,2.6
	C112,52.1,113.1,53.2,114.4,53.2z M118.8,47.2h1.1V45h1.1v2.2h2v1h-2v3.6c0,1,0.5,1.4,1.2,1.4c0.4,0,0.8,0,1.1-0.2l0.3,0.8
	c-0.4,0.2-0.9,0.3-1.4,0.3c-1.3,0-2.3-0.8-2.3-2.3v-3.6h-1.1V47.2z M124.8,52.8c0.7,0.3,1.4,0.5,2,0.5c0.8,0,1.5-0.3,1.5-1.1
	c0-0.5-0.4-0.9-1.5-1.1c-1.3-0.3-2.2-0.9-2.2-2c0-1.3,1.1-2,2.4-2c0.8,0,1.5,0.2,2.2,0.5l-0.3,0.9c-0.6-0.2-1.3-0.5-1.9-0.5
	c-0.7,0-1.3,0.3-1.3,1c0,0.5,0.4,0.8,1.4,1c1.4,0.3,2.3,1,2.3,2.1c0,1.4-1.2,2-2.6,2c-0.8,0-1.6-0.2-2.3-0.5L124.8,52.8z
	 M130.3,47.2h1.1V45h1.1v2.2h2v1h-2v3.6c0,1,0.5,1.4,1.2,1.4c0.4,0,0.8,0,1.1-0.2l0.3,0.8c-0.4,0.2-0.9,0.3-1.4,0.3
	c-1.3,0-2.3-0.8-2.3-2.3v-3.6h-1.1V47.2z M136.4,47.2h1.1V48l0.1,0c0.5-0.5,1.2-0.9,2.1-0.9h0.2v1h-0.3c-0.8,0-1.5,0.4-2,1v5h-1.1
	V47.2z M146,47.8L146,47.8l0.1-0.5h1.1V54h-1.1v-0.8l-0.1,0c-0.5,0.5-1.2,0.9-2.2,0.9c-1.8,0-3.3-1.6-3.3-3.6c0-2,1.5-3.6,3.4-3.6
	C144.9,47.1,145.5,47.4,146,47.8z M146.1,52.1v-3.4c-0.5-0.4-1.2-0.7-2-0.7c-1.4,0-2.5,1.2-2.5,2.6c0,1.4,1.1,2.6,2.5,2.6
	C144.9,53.2,145.6,52.9,146.1,52.1z M150.6,53.6L150.6,53.6l-0.1,3.6h-1.1v-10h1.1V48l0.1,0c0.5-0.5,1.2-0.9,2.2-0.9
	c1.8,0,3.3,1.6,3.3,3.6c0,2-1.5,3.6-3.4,3.6C151.8,54.2,151.1,53.9,150.6,53.6z M150.6,49.2v3.5c0.5,0.3,1.2,0.5,2,0.5
	c1.4,0,2.5-1.2,2.5-2.6c0-1.4-1.1-2.6-2.5-2.6C151.8,48,151,48.3,150.6,49.2z M160.9,44.5h5.1v1h-4v2.5h1.1c1.9,0,3.3,1.2,3.3,3
	c0,1.9-1.5,3.1-3.5,3.1c-0.7,0-1.4-0.1-2.1-0.3l0.2-0.9c0.6,0.1,1.3,0.2,1.9,0.2c1.4,0,2.4-0.7,2.4-2.2c0-1.4-0.9-2-2.2-2h-2.1V44.5
	z M227.4,39.3h-3.6v-3.6c0-1,0.8-1.9,1.9-1.9h3.6v3.6C229.3,38.4,228.5,39.3,227.4,39.3z M142.4,11.5h-4.2V7.3c0-1.2,1-2.2,2.2-2.2
	h4.2v4.2C144.6,10.5,143.6,11.5,142.4,11.5z M102.6,11.7h-4.2V7.5c0-1.2,1-2.2,2.2-2.2h4.2v4.2C104.8,10.7,103.8,11.7,102.6,11.7z"
	/>
<g>
	<path class="st1" d="M34.2,14.2c2.1,0,3.7,0.5,4.7,1.6c1,1.1,1.5,2.4,1.5,4.1v2.5c0,1.9-0.5,3.4-1.5,4.4c-1,1-2.6,1.6-4.6,1.6H20.9
		c-1.2,0-1.8,0.7-1.8,2v3c0,0.5,0.2,0.7,0.7,0.7h19.8c0.5,0,0.8,0.3,0.8,0.8v3.1c0,0.5-0.3,0.8-0.8,0.8H17.1c-1.2,0-2-0.2-2.5-0.7
		c-0.5-0.5-0.7-1.2-0.7-2.3v-5.4c0-1.9,0.5-3.4,1.5-4.5c1-1,2.6-1.6,4.6-1.6h13.3c1.2,0,1.8-0.7,1.8-2v-1.5c0-0.6-0.1-1.1-0.4-1.5
		c-0.3-0.4-0.8-0.5-1.4-0.5H15.6c-0.5,0-0.8-0.3-0.8-0.8V15c0-0.5,0.3-0.8,0.8-0.8H34.2z"/>
</g>
</svg>
